<svg fill="none" height="14" viewBox="0 0 14 14" width="14" xmlns="http://www.w3.org/2000/svg"><g fill="#666d74"><path d="m2 9h4v2h-4z" transform="matrix(0 1 -1 0 11 7)"/><path d="m8 4h6v2h-6z" transform="matrix(0 1 -1 0 12 -4)"/><path d="m10 6h2v6h-2z" transform="matrix(0 1 -1 0 16 -4)"/><path d="m5 0h2v5h-2z" transform="matrix(0 1 -1 0 5 -5)"/><path d="m14 0h2v5h-2z" transform="matrix(0 1 -1 0 14 -14)"/><path d="m14 12h2v5h-2z" transform="matrix(0 1 -1 0 26 -2)"/><path d="m5 12h2v5h-2z" transform="matrix(0 1 -1 0 17 7)"/><path d="m14 0h5v2h-5z" transform="matrix(0 1 -1 0 14 -14)"/><path d="m14 9h5v2h-5z" transform="matrix(0 1 -1 0 23 -5)"/><path d="m2 0h5v2h-5z" transform="matrix(0 1 -1 0 2 -2)"/></g></svg>