<svg fill="none" height="14" viewBox="0 0 14 14" width="14" xmlns="http://www.w3.org/2000/svg"><path clip-rule="evenodd" d="m0 2c0-1.10457.895431-2 2-2h10c1.1046 0 2 .895431 2 2v10c0 1.1046-.8954 2-2 2h-10c-1.10457 0-2-.8954-2-2zm2 0h10v10h-10zm4 6.5293h2c0-.2793.06291-.50489.15601-.67676.09668-.17546.32584-.40641.6875-.69287.5192-.40821.86295-.75375 1.03125-1.03662.16824-.28288.25244-.5765.25244-.88086 0-.73405-.32585-1.32129-.97754-1.76172-.47982-.32585-1.11003-.48047-1.89063-.48047-1.0026 0-1.74739.22624-2.23437.69531-.4834.4655-.76091 1.08138-.83252 1.84766l2.08398.25781c.04655-.41894.15218-.71256.3169-.88086.16829-.16829.37955-.25244.63379-.25244.23632 0 .41178.0555.52636.1665.11817.10743.17725.25961.17725.45655s-.14502.41357-.43506.6499c-.54427.45117-.89518.76628-1.05273.94531-.15397.17904-.25385.37777-.33263.59619-.07878.21485-.11.49593-.11.84327zm2.01636.4707h-2.01636v2h2.01636z" fill="#666d74" fill-rule="evenodd"/></svg>